<mxfile host="65bd71144e">
    <diagram id="CXXSiYioIeRtVV1KvOWu" name="Page-1">
        <mxGraphModel dx="1640" dy="1134" grid="0" gridSize="10" guides="1" tooltips="1" connect="1" arrows="1" fold="1" page="1" pageScale="1" pageWidth="2336" pageHeight="1654" math="0" shadow="0">
            <root>
                <mxCell id="0"/>
                <mxCell id="1" parent="0"/>
                <mxCell id="2" value="order" style="swimlane;childLayout=stackLayout;resizeParent=1;resizeParentMax=0;horizontal=0;startSize=20;horizontalStack=0;fillColor=#60a917;strokeColor=#2D7600;fontColor=#ffffff;fontSize=13;" parent="1" vertex="1">
                    <mxGeometry x="83" y="80" width="2119" height="970" as="geometry"/>
                </mxCell>
                <mxCell id="126" value="" style="edgeStyle=none;html=1;" edge="1" parent="2" source="111" target="125">
                    <mxGeometry relative="1" as="geometry"/>
                </mxCell>
                <mxCell id="3" value="Customer" style="swimlane;startSize=53;horizontal=0;" parent="2" vertex="1">
                    <mxGeometry x="20" width="2099" height="200" as="geometry"/>
                </mxCell>
                <mxCell id="112" value="" style="edgeStyle=none;html=1;" parent="3" source="22" target="111" edge="1">
                    <mxGeometry relative="1" as="geometry"/>
                </mxCell>
                <mxCell id="22" value="&lt;font style=&quot;font-size: 18px&quot;&gt;شروع&lt;/font&gt;" style="ellipse;whiteSpace=wrap;html=1;aspect=fixed;fontSize=13;fillColor=#0050ef;strokeColor=#001DBC;fontColor=#ffffff;" parent="3" vertex="1">
                    <mxGeometry x="147" y="62" width="80" height="80" as="geometry"/>
                </mxCell>
                <mxCell id="111" value="&lt;font style=&quot;font-size: 23px&quot;&gt;پر کردن فرم درخواست تسویه&lt;/font&gt;" style="whiteSpace=wrap;html=1;fontSize=13;fillColor=#60a917;strokeColor=#2D7600;fontColor=#ffffff;" parent="3" vertex="1">
                    <mxGeometry x="289" y="68" width="197" height="68" as="geometry"/>
                </mxCell>
                <mxCell id="20" value="Postex" style="swimlane;startSize=53;horizontal=0;fillColor=#60a917;strokeColor=#2D7600;fontColor=#ffffff;" parent="2" vertex="1">
                    <mxGeometry x="20" y="200" width="2099" height="435" as="geometry"/>
                </mxCell>
                <mxCell id="128" value="" style="edgeStyle=none;html=1;" edge="1" parent="20" source="125" target="127">
                    <mxGeometry relative="1" as="geometry"/>
                </mxCell>
                <mxCell id="125" value="&lt;font style=&quot;font-size: 23px&quot;&gt;ارسال فرم در کارتابل مالی&lt;/font&gt;" style="whiteSpace=wrap;html=1;fontSize=13;fillColor=#60a917;strokeColor=#2D7600;fontColor=#ffffff;" vertex="1" parent="20">
                    <mxGeometry x="289" y="67" width="197" height="68" as="geometry"/>
                </mxCell>
                <mxCell id="130" value="" style="edgeStyle=none;html=1;" edge="1" parent="20" source="127" target="129">
                    <mxGeometry relative="1" as="geometry"/>
                </mxCell>
                <mxCell id="127" value="&lt;font style=&quot;font-size: 23px&quot;&gt;بررسی فرم&lt;/font&gt;" style="whiteSpace=wrap;html=1;fontSize=13;fillColor=#60a917;strokeColor=#2D7600;fontColor=#ffffff;" vertex="1" parent="20">
                    <mxGeometry x="566" y="67" width="199" height="68" as="geometry"/>
                </mxCell>
                <mxCell id="132" style="edgeStyle=none;html=1;exitX=1;exitY=0.5;exitDx=0;exitDy=0;fontSize=20;" edge="1" parent="20" source="129" target="131">
                    <mxGeometry relative="1" as="geometry"/>
                </mxCell>
                <mxCell id="134" style="edgeStyle=none;html=1;exitX=0.5;exitY=1;exitDx=0;exitDy=0;fontSize=20;" edge="1" parent="20" source="129" target="133">
                    <mxGeometry relative="1" as="geometry"/>
                </mxCell>
                <mxCell id="129" value="&lt;font style=&quot;font-size: 20px&quot;&gt;شرایط&amp;nbsp; موجود است&amp;nbsp;&lt;/font&gt;" style="rhombus;whiteSpace=wrap;html=1;fontSize=13;fillColor=#a20025;strokeColor=#6F0000;fontColor=#ffffff;" vertex="1" parent="20">
                    <mxGeometry x="808" y="51" width="110.5" height="96" as="geometry"/>
                </mxCell>
                <mxCell id="138" value="" style="edgeStyle=none;html=1;fontSize=20;" edge="1" parent="20" source="131" target="137">
                    <mxGeometry relative="1" as="geometry"/>
                </mxCell>
                <mxCell id="131" value="&lt;font style=&quot;font-size: 23px&quot;&gt;تایید درخواست&amp;nbsp;&lt;/font&gt;" style="whiteSpace=wrap;html=1;fontSize=13;fillColor=#60a917;strokeColor=#2D7600;fontColor=#ffffff;" vertex="1" parent="20">
                    <mxGeometry x="983" y="65" width="199" height="68" as="geometry"/>
                </mxCell>
                <mxCell id="133" value="&lt;font style=&quot;font-size: 23px&quot;&gt;رد درخواست&amp;nbsp;&lt;/font&gt;" style="whiteSpace=wrap;html=1;fontSize=13;fillColor=#60a917;strokeColor=#2D7600;fontColor=#ffffff;" vertex="1" parent="20">
                    <mxGeometry x="761" y="213" width="199" height="68" as="geometry"/>
                </mxCell>
                <mxCell id="135" value="بله" style="text;html=1;strokeColor=none;fillColor=none;align=center;verticalAlign=middle;whiteSpace=wrap;rounded=0;fontSize=20;" vertex="1" parent="20">
                    <mxGeometry x="915" y="60" width="60" height="30" as="geometry"/>
                </mxCell>
                <mxCell id="136" value="خیر" style="text;html=1;strokeColor=none;fillColor=none;align=center;verticalAlign=middle;whiteSpace=wrap;rounded=0;fontSize=20;" vertex="1" parent="20">
                    <mxGeometry x="863" y="155" width="60" height="30" as="geometry"/>
                </mxCell>
                <mxCell id="140" value="" style="edgeStyle=none;html=1;fontSize=20;" edge="1" parent="20" source="137" target="139">
                    <mxGeometry relative="1" as="geometry"/>
                </mxCell>
                <mxCell id="137" value="&lt;font style=&quot;font-size: 23px&quot;&gt;ایجاد اکسل&amp;nbsp;&lt;/font&gt;" style="whiteSpace=wrap;html=1;fontSize=13;fillColor=#60a917;strokeColor=#2D7600;fontColor=#ffffff;" vertex="1" parent="20">
                    <mxGeometry x="1262" y="65" width="120" height="68" as="geometry"/>
                </mxCell>
                <mxCell id="139" value="&lt;font style=&quot;font-size: 23px&quot;&gt;پرداخت به شماره شبا&lt;/font&gt;" style="whiteSpace=wrap;html=1;fontSize=13;fillColor=#60a917;strokeColor=#2D7600;fontColor=#ffffff;" vertex="1" parent="20">
                    <mxGeometry x="1462" y="65" width="171" height="68" as="geometry"/>
                </mxCell>
                <mxCell id="29" value="&lt;font style=&quot;font-size: 23px&quot;&gt;پایان&lt;/font&gt;" style="ellipse;whiteSpace=wrap;html=1;fillColor=#0050ef;strokeColor=#001DBC;fontColor=#ffffff;" parent="20" vertex="1">
                    <mxGeometry x="2066" y="64" width="73" height="70" as="geometry"/>
                </mxCell>
                <mxCell id="58" value="Vendor" style="swimlane;startSize=20;horizontal=0;" parent="2" vertex="1">
                    <mxGeometry x="20" y="635" width="2099" height="335" as="geometry"/>
                </mxCell>
                <mxCell id="154" style="edgeStyle=orthogonalEdgeStyle;html=1;exitX=0.5;exitY=1;exitDx=0;exitDy=0;fontSize=20;" edge="1" parent="58" source="141" target="146">
                    <mxGeometry relative="1" as="geometry"/>
                </mxCell>
                <mxCell id="141" value="&lt;font style=&quot;font-size: 20px&quot;&gt;پرداخت موفقیت آمیز بود&lt;/font&gt;" style="rhombus;whiteSpace=wrap;html=1;fontSize=13;fillColor=#a20025;strokeColor=#6F0000;fontColor=#ffffff;" vertex="1" parent="58">
                    <mxGeometry x="1492" y="26" width="104.5" height="104" as="geometry"/>
                </mxCell>
                <mxCell id="144" value="&lt;font style=&quot;font-size: 23px&quot;&gt;پرداخت موفقیت آمیز بوده&lt;/font&gt;" style="whiteSpace=wrap;html=1;fontSize=13;fillColor=#60a917;strokeColor=#2D7600;fontColor=#ffffff;" vertex="1" parent="58">
                    <mxGeometry x="1766" y="44" width="171" height="68" as="geometry"/>
                </mxCell>
                <mxCell id="145" style="edgeStyle=none;html=1;exitX=1;exitY=0.5;exitDx=0;exitDy=0;fontSize=20;" edge="1" parent="58" source="141" target="144">
                    <mxGeometry relative="1" as="geometry"/>
                </mxCell>
                <mxCell id="153" value="" style="edgeStyle=orthogonalEdgeStyle;html=1;fontSize=20;" edge="1" parent="58" source="146" target="152">
                    <mxGeometry relative="1" as="geometry"/>
                </mxCell>
                <mxCell id="146" value="&lt;font style=&quot;font-size: 23px&quot;&gt;برگرداندن خطا&amp;nbsp;&lt;/font&gt;" style="whiteSpace=wrap;html=1;fontSize=13;fillColor=#60a917;strokeColor=#2D7600;fontColor=#ffffff;" vertex="1" parent="58">
                    <mxGeometry x="1458.75" y="197" width="171" height="68" as="geometry"/>
                </mxCell>
                <mxCell id="150" value="بله" style="text;html=1;strokeColor=none;fillColor=none;align=center;verticalAlign=middle;whiteSpace=wrap;rounded=0;fontSize=20;" vertex="1" parent="58">
                    <mxGeometry x="1626" y="33" width="60" height="30" as="geometry"/>
                </mxCell>
                <mxCell id="151" value="خیر" style="text;html=1;strokeColor=none;fillColor=none;align=center;verticalAlign=middle;whiteSpace=wrap;rounded=0;fontSize=20;" vertex="1" parent="58">
                    <mxGeometry x="1557" y="150.5" width="60" height="34" as="geometry"/>
                </mxCell>
                <mxCell id="155" style="edgeStyle=orthogonalEdgeStyle;html=1;exitX=0.5;exitY=0;exitDx=0;exitDy=0;entryX=0;entryY=0.5;entryDx=0;entryDy=0;fontSize=20;" edge="1" parent="58" source="152" target="141">
                    <mxGeometry relative="1" as="geometry"/>
                </mxCell>
                <mxCell id="152" value="&lt;font style=&quot;font-size: 23px&quot;&gt;تلاش مجدد&lt;/font&gt;" style="whiteSpace=wrap;html=1;fontSize=13;fillColor=#60a917;strokeColor=#2D7600;fontColor=#ffffff;" vertex="1" parent="58">
                    <mxGeometry x="1130" y="197" width="171" height="68" as="geometry"/>
                </mxCell>
                <mxCell id="142" value="" style="edgeStyle=none;html=1;fontSize=20;" edge="1" parent="2" source="139" target="141">
                    <mxGeometry relative="1" as="geometry"/>
                </mxCell>
                <mxCell id="148" style="edgeStyle=orthogonalEdgeStyle;html=1;exitX=1;exitY=0.5;exitDx=0;exitDy=0;fontSize=20;" edge="1" parent="2" source="144" target="29">
                    <mxGeometry relative="1" as="geometry"/>
                </mxCell>
            </root>
        </mxGraphModel>
    </diagram>
</mxfile>